<svg width="32" height="32" viewBox="0 0 32 32" fill="none" xmlns="http://www.w3.org/2000/svg">
<g id="Component 3" clip-path="url(#clip0_2668_619)">
<g id="Group">
<path id="Vector" d="M25.0035 0.96043C25.0035 0.429997 24.5735 0 24.043 0H7.95652C7.42609 0 6.99609 0.429997 6.99609 0.96043V10.6549H25.0035L25.0035 0.96043ZM11.2154 7.83656C11.2154 8.35431 10.7956 8.77406 10.2779 8.77406C9.76013 8.77406 9.34039 8.35431 9.34039 7.83656V5.44196C9.34039 4.92421 9.76013 4.50447 10.2779 4.50447C10.7956 4.50447 11.2154 4.92421 11.2154 5.44196V7.83656Z" fill="black"/>
<path id="Vector_2" d="M6.99609 28.9162C6.99609 29.4467 7.42609 29.8766 7.95652 29.8766H8.63427V31.0625C8.63427 31.5802 9.05401 31.9999 9.57176 31.9999C10.0895 31.9999 10.5093 31.5802 10.5093 31.0625V29.8766H21.3782V31.0625C21.3782 31.5802 21.798 31.9999 22.3157 31.9999C22.8335 31.9999 23.2532 31.5802 23.2532 31.0625V29.8766H24.043C24.5735 29.8766 25.0035 29.4467 25.0035 28.9162V12.5298H6.99609V28.9162ZM9.34039 15.3801C9.34039 14.8623 9.76013 14.4426 10.2779 14.4426C10.7956 14.4426 11.2154 14.8623 11.2154 15.3801V17.7748C11.2154 18.2926 10.7956 18.7123 10.2779 18.7123C9.76013 18.7123 9.34039 18.2926 9.34039 17.7748V15.3801Z" fill="black"/>
</g>
</g>
<defs>
<clipPath id="clip0_2668_619">
<rect width="32" height="32" fill="white"/>
</clipPath>
</defs>
</svg>
