<svg width="32" height="32" viewBox="0 0 32 32" fill="none" xmlns="http://www.w3.org/2000/svg">
<g id="Component 2" clip-path="url(#clip0_2668_623)">
<g id="Group">
<path id="Vector" d="M30.8703 5.10669C29.9883 3.58244 28.7205 2.30406 27.2045 1.40981C25.6408 0.4875 23.8501 0 22.0256 0C20.2012 0 18.4102 0.4875 16.8467 1.40981C15.3305 2.30412 14.0628 3.5825 13.1808 5.10669C13.0007 5.41788 13.0144 5.8045 13.216 6.10213L17.248 12.0536C17.2713 12.0519 17.2947 12.05 17.3185 12.05H20.2227L19.6299 10.2714C19.4662 9.78025 19.7317 9.24931 20.2228 9.08556C20.7141 8.92194 21.245 9.18738 21.4087 9.6785L22.0256 11.5292L22.6425 9.6785C22.8062 9.18731 23.337 8.92181 23.8283 9.08556C24.3195 9.24931 24.585 9.78019 24.4213 10.2714L23.8285 12.05H26.7327C26.7565 12.05 26.7798 12.0518 26.8033 12.0536L30.8352 6.10213C31.0367 5.8045 31.0504 5.41788 30.8703 5.10669Z" fill="black"/>
<path id="Vector_2" d="M18.0742 30.0584C18.0742 31.129 18.9452 32 20.0158 32H24.0326C25.1032 32 25.9742 31.129 25.9742 30.0584V13.925H18.0742V30.0584Z" fill="black"/>
<path id="Vector_3" d="M2.00781 11.9167H10.912V21.0876H2.00781V11.9167Z" fill="black"/>
<path id="Vector_4" d="M1.00391 30.0583C1.00391 31.1289 1.87491 31.9999 2.94553 31.9999H9.97478C11.0454 31.9999 11.9164 31.1289 11.9164 30.0583V22.9624H1.00391V30.0583Z" fill="black"/>
<path id="Vector_5" d="M9.90759 1.94159C9.90759 1.00921 9.24228 0.306152 8.36009 0.306152C8.13703 0.306152 7.91141 0.351152 7.68959 0.439965L4.53341 1.7024C3.66591 2.0494 3.01172 3.01565 3.01172 3.94997V10.0417H9.90759V1.94159Z" fill="black"/>
</g>
</g>
<defs>
<clipPath id="clip0_2668_623">
<rect width="32" height="32" fill="white"/>
</clipPath>
</defs>
</svg>
